
<svg version="1.1" viewBox="0.0 0.0 990.0 316.0" fill="none" stroke="none" stroke-linecap="square" stroke-miterlimit="10" xmlns:xlink="http://www.w3.org/1999/xlink" xmlns="http://www.w3.org/2000/svg"><clipPath id="p.0"><path d="m0 0l990.0 0l0 316.0l-990.0 0l0 -316.0z" clip-rule="nonzero"/></clipPath><g clip-path="url(#p.0)"><path fill="#000000" fill-opacity="0.0" d="m0 0l990.0 0l0 316.0l-990.0 0z" fill-rule="evenodd"/><path fill="#000000" fill-opacity="0.0" d="m-5.007874 77.338585l997.0079 0l0 161.32285l-997.0079 0z" fill-rule="evenodd"/><path fill="#ffffff" d="m63.2157 105.04064q0 -17.671875 6.75 -33.15625q6.75 -15.484379 18.359375 -27.093754q11.625 -11.625 27.109375 -18.374998q15.484375 -6.75 33.15625 -6.75l130.65625 0l0 56.984375l-130.65625 0q-5.953125 0 -11.125 2.1875q-5.15625 2.171875 -9.03125 6.046875q-3.875 3.875 -6.0625 9.046875q-2.171875 5.15625 -2.171875 11.109375q0 5.953125 2.171875 11.21875q2.1875 5.265625 6.0625 9.140625q3.875 3.8749924 9.03125 6.0624924q5.171875 2.171875 11.125 2.171875l56.984375 0q17.671875 0 33.265625 6.65625q15.59375 6.65625 27.203125 18.265625q11.609375 11.609375 18.265625 27.203125q6.65625 15.59375 6.65625 33.265625q0 17.671875 -6.65625 33.15625q-6.65625 15.48439 -18.265625 27.10939q-11.609375 11.609375 -27.203125 18.359375q-15.59375 6.75 -33.265625 6.75l-126.484375 0l0 -56.98439l126.484375 0q5.96875 0 11.125 -2.1875q5.15625 -2.1875 9.03125 -6.046875q3.875 -3.875 6.0625 -9.03125q2.1875 -5.171875 2.1875 -11.125q0 -5.96875 -2.1875 -11.125q-2.1875 -5.171875 -6.0625 -9.03125q-3.875 -3.875 -9.03125 -6.0625q-5.15625 -2.1875 -11.125 -2.1875l-56.984375 0q-17.671875 0 -33.15625 -6.75q-15.484375 -6.75 -27.109375 -18.359375q-11.609375 -11.625 -18.359375 -27.203125q-6.75 -15.593742 -6.75 -33.265617zm311.54117 199.35938l-54.203125 0l0 -212.65625l13.09375 0l17.875 20.640625q13.109375 -11.90625 29.6875 -18.359375q16.578125 -6.453125 34.640625 -6.453125q19.46875 0 36.734375 7.453125q17.28125 7.4375 30.1875 20.453125q12.90625 12.999992 20.34375 30.374992q7.4531555 17.375 7.4531555 37.03125l0 121.51564l-54.203156 0l0 -121.51564q0 -8.34375 -3.1875 -15.78125q-3.171875 -7.453125 -8.734375 -13.015625q-5.546875 -5.5625 -12.90625 -8.734375q-7.34375 -3.171875 -15.6875 -3.171875q-8.53125 0 -16.078125 3.171875q-7.546875 3.171875 -13.109375 8.734375q-5.546875 5.5625 -8.734375 13.015625q-3.171875 7.4375 -3.171875 15.78125l0 121.51564zm329.01956 -24.828125q-6.5625 5.96875 -14.015625 11.234375q-7.4375 5.25 -15.578125 9.125q-8.140625 3.875 -16.78125 6.15625q-8.625 2.28125 -17.5625 2.28125q-19.65625 0 -36.9375 -6.9375q-17.265625 -6.953125 -30.28125 -19.765625q-13.0 -12.8125 -20.453125 -31.17189q-7.4375 -18.375 -7.4375 -41.203125l0 -117.54687l54.0 0l0 117.54687q0 10.71875 3.28125 19.15625q3.28125 8.4375 8.828125 14.203125q5.5625 5.75 13.0 8.734375q7.453125 2.984375 16.0 2.984375q8.34375 0 15.78125 -3.875q7.453125 -3.875 13.0 -10.21875q5.5625 -6.359375 8.734375 -14.40625q3.1875 -8.046875 3.1875 -16.578125l0 -117.54687l54.203125 0l0 212.65625l-13.09375 0l-17.875 -24.828125zm178.90497 24.828125q-19.65625 0 -36.9375 -7.4375q-17.265625 -7.453125 -30.28125 -20.453125q-13.0 -13.015625 -20.453125 -30.281265q-7.4375 -17.28125 -7.4375 -36.9375l0 -63.140625l-26.40625 0l0 -54.015617l26.40625 0l0 -84.984375l54.0 0l0 84.984375l82.203125 0l0 54.015617l-82.203125 0l0 63.140625q0 8.53125 3.171875 15.984375q3.1875 7.4375 8.75 13.0q5.5625 5.5625 13.09375 8.84375q7.546875 3.265625 16.09375 3.265625l41.09375 0l0 54.01564l-41.09375 0z" fill-rule="nonzero"/></g></svg>