<?xml version="1.0" standalone="no"?>
<!DOCTYPE svg PUBLIC "-//W3C//DTD SVG 20010904//EN"
 "http://www.w3.org/TR/2001/REC-SVG-20010904/DTD/svg10.dtd">
<svg version="1.0" xmlns="http://www.w3.org/2000/svg"
 width="356.000000pt" height="356.000000pt" viewBox="0 0 356.000000 356.000000"
 preserveAspectRatio="xMidYMid meet">
<metadata>
Created by potrace 1.14, written by Peter Selinger 2001-2017
</metadata>
<g transform="translate(0.000000,356.000000) scale(0.100000,-0.100000)"
fill="#000000" stroke="none">
<path d="M1307 3358 c-96 -11 -243 -62 -337 -117 -192 -111 -321 -253 -415
-455 -61 -132 -84 -238 -86 -401 -4 -369 213 -713 556 -883 65 -32 167 -66
230 -77 22 -4 51 -10 65 -12 14 -2 210 -6 435 -7 395 -3 412 -4 467 -25 150
-58 229 -215 192 -386 -18 -85 -92 -171 -182 -213 l-57 -27 -760 0 -760 -1 -3
-327 -2 -327 772 1 c442 0 799 4 833 10 192 31 394 136 536 278 129 130 218
286 261 457 32 129 31 353 -1 474 -103 378 -378 635 -776 726 -16 4 -147 8
-290 10 -691 10 -624 6 -681 36 -114 60 -176 158 -180 285 -1 40 3 87 10 105
18 52 63 124 95 151 35 29 108 66 148 74 15 3 374 6 798 7 l770 1 0 325 0 325
-785 1 c-432 0 -816 -4 -853 -8z"/>
</g>
</svg>
